<svg data-icon-name="milkshake-2" data-style="flat-line" icon_origin_id="19684" viewBox="0 0 24 24" xmlns="http://www.w3.org/2000/svg" data-name="Flat Line" id="milkshake-2" class="icon flat-line" width="48" height="48"><path style="fill: rgb(255, 129, 0); stroke-width: 1.5;" d="M17,11l-1.37,9.15a1,1,0,0,1-1,.85H9.36a1,1,0,0,1-1-.85L7,11Z" id="secondary"></path><path style="fill: none; stroke: rgb(132, 0, 255); stroke-linecap: round; stroke-linejoin: round; stroke-width: 1.5;" d="M18,3H16a1,1,0,0,0-1,.89l-.21,1.88" id="primary"></path><path style="fill: none; stroke: rgb(132, 0, 255); stroke-linecap: round; stroke-linejoin: round; stroke-width: 1.5;" d="M17,11l-1.37,9.15a1,1,0,0,1-1,.85H9.36a1,1,0,0,1-1-.85L7,11ZM14.57,5.81A8,8,0,0,1,10.28,3,3.2,3.2,0,0,0,8,6.2a4.72,4.72,0,0,0-1,.73A2.89,2.89,0,0,0,6,9a2.62,2.62,0,0,0,1,2H17a2.62,2.62,0,0,0,1-1.64C18,8.93,18.41,7.07,14.57,5.81Z" data-name="primary" id="primary-2"></path></svg>